<svg width="286" height="102" viewBox="0 0 286 102" fill="none" xmlns="http://www.w3.org/2000/svg">
<path d="M11.2915 7.94979C13.2601 7.94979 14.9804 8.33109 16.4524 9.09369C17.9421 9.83856 19.086 10.9204 19.8841 12.3392C20.6999 13.7402 21.1078 15.3807 21.1078 17.2606C21.1078 19.1405 20.6999 20.7722 19.8841 22.1555C19.086 23.5388 17.9421 24.6029 16.4524 25.3478C14.9804 26.0749 13.2601 26.4385 11.2915 26.4385H5.25275V7.94979H11.2915ZM11.2915 23.9645C13.4552 23.9645 15.1134 23.3792 16.2662 22.2087C17.4189 21.0382 17.9953 19.3888 17.9953 17.2606C17.9953 15.1147 17.4189 13.4388 16.2662 12.2328C15.1134 11.0268 13.4552 10.4238 11.2915 10.4238H8.28543V23.9645H11.2915ZM25.7894 9.83856C25.2396 9.83856 24.7785 9.65234 24.4061 9.27991C24.0337 8.90747 23.8474 8.44637 23.8474 7.89658C23.8474 7.3468 24.0337 6.88569 24.4061 6.51326C24.7785 6.14082 25.2396 5.9546 25.7894 5.9546C26.3215 5.9546 26.7737 6.14082 27.1461 6.51326C27.5186 6.88569 27.7048 7.3468 27.7048 7.89658C27.7048 8.44637 27.5186 8.90747 27.1461 9.27991C26.7737 9.65234 26.3215 9.83856 25.7894 9.83856ZM27.2791 11.7805V26.4385H24.2465V11.7805H27.2791ZM36.7143 26.6779C35.5615 26.6779 34.524 26.4739 33.6018 26.066C32.6973 25.6404 31.979 25.0729 31.447 24.3635C30.915 23.6364 30.6312 22.8294 30.5957 21.9427H33.7348C33.788 22.5634 34.0806 23.0866 34.6127 23.5122C35.1625 23.9201 35.8453 24.1241 36.6611 24.1241C37.5124 24.1241 38.1685 23.9645 38.6297 23.6452C39.1085 23.3083 39.3479 22.8826 39.3479 22.3683C39.3479 21.8185 39.0819 21.4106 38.5498 21.1446C38.0355 20.8786 37.2109 20.5859 36.0758 20.2667C34.9763 19.9652 34.0806 19.6726 33.389 19.3888C32.6973 19.1051 32.0943 18.6706 31.58 18.0853C31.0834 17.5001 30.8351 16.7286 30.8351 15.7709C30.8351 14.9906 31.0657 14.2812 31.5268 13.6427C31.9879 12.9865 32.6441 12.4722 33.4954 12.0998C34.3644 11.7273 35.3576 11.5411 36.4749 11.5411C38.1419 11.5411 39.4809 11.9668 40.4918 12.818C41.5205 13.6516 42.0702 14.7955 42.1412 16.2497H39.1085C39.0553 15.5936 38.7893 15.0704 38.3104 14.6802C37.8316 14.29 37.1843 14.0949 36.3685 14.0949C35.5704 14.0949 34.9585 14.2457 34.5329 14.5472C34.1072 14.8487 33.8944 15.2477 33.8944 15.7443C33.8944 16.1345 34.0363 16.4626 34.3201 16.7286C34.6038 16.9946 34.9497 17.2074 35.3576 17.367C35.7655 17.5089 36.3685 17.6951 37.1665 17.9257C38.2306 18.2095 39.0996 18.5021 39.7736 18.8036C40.4652 19.0873 41.0593 19.513 41.5559 20.0805C42.0525 20.648 42.3097 21.4017 42.3274 22.3417C42.3274 23.1752 42.0968 23.9201 41.6357 24.5763C41.1746 25.2325 40.5184 25.7468 39.6672 26.1192C38.8336 26.4917 37.8493 26.6779 36.7143 26.6779ZM44.7264 19.0962C44.7264 17.5887 45.0279 16.2675 45.6309 15.1324C46.2516 13.9797 47.1029 13.0929 48.1847 12.4722C49.2665 11.8515 50.508 11.5411 51.909 11.5411C53.6825 11.5411 55.1457 11.9668 56.2985 12.818C57.469 13.6516 58.2582 14.8487 58.6661 16.4094H55.394C55.1279 15.6822 54.7023 15.1147 54.1171 14.7068C53.5318 14.2989 52.7958 14.0949 51.909 14.0949C50.6676 14.0949 49.6744 14.5383 48.9296 15.4251C48.2024 16.2941 47.8389 17.5178 47.8389 19.0962C47.8389 20.6746 48.2024 21.9072 48.9296 22.7939C49.6744 23.6807 50.6676 24.1241 51.909 24.1241C53.6648 24.1241 54.8265 23.3526 55.394 21.8097H58.6661C58.2404 23.2994 57.4424 24.4876 56.2718 25.3744C55.1013 26.2434 53.6471 26.6779 51.909 26.6779C50.508 26.6779 49.2665 26.3675 48.1847 25.7468C47.1029 25.1084 46.2516 24.2216 45.6309 23.0866C45.0279 21.9338 44.7264 20.6037 44.7264 19.0962ZM68.1793 26.6779C66.796 26.6779 65.5457 26.3675 64.4284 25.7468C63.3111 25.1084 62.4332 24.2216 61.7948 23.0866C61.1563 21.9338 60.8371 20.6037 60.8371 19.0962C60.8371 17.6065 61.1652 16.2852 61.8214 15.1324C62.4776 13.9797 63.3732 13.0929 64.5082 12.4722C65.6432 11.8515 66.9113 11.5411 68.3124 11.5411C69.7134 11.5411 70.9815 11.8515 72.1165 12.4722C73.2515 13.0929 74.1472 13.9797 74.8034 15.1324C75.4595 16.2852 75.7876 17.6065 75.7876 19.0962C75.7876 20.5859 75.4507 21.9072 74.7768 23.06C74.1028 24.2127 73.1806 25.1084 72.0101 25.7468C70.8573 26.3675 69.5804 26.6779 68.1793 26.6779ZM68.1793 24.0443C68.9597 24.0443 69.6868 23.858 70.3607 23.4856C71.0524 23.1132 71.6111 22.5545 72.0367 21.8097C72.4623 21.0648 72.6752 20.1603 72.6752 19.0962C72.6752 18.0321 72.4712 17.1365 72.0633 16.4094C71.6554 15.6645 71.1145 15.1058 70.4406 14.7334C69.7666 14.361 69.0395 14.1748 68.2592 14.1748C67.4788 14.1748 66.7517 14.361 66.0778 14.7334C65.4216 15.1058 64.8984 15.6645 64.5082 16.4094C64.118 17.1365 63.923 18.0321 63.923 19.0962C63.923 20.6746 64.322 21.8983 65.1201 22.7673C65.9359 23.6186 66.9556 24.0443 68.1793 24.0443ZM84.5849 23.725L88.7349 11.7805H91.9538L86.3673 26.4385H82.7494L77.1895 11.7805H80.435L84.5849 23.725ZM107.813 18.7504C107.813 19.3002 107.778 19.7967 107.707 20.2401H96.5074C96.5961 21.4106 97.0306 22.3506 97.8109 23.06C98.5913 23.7694 99.5489 24.1241 100.684 24.1241C102.316 24.1241 103.468 23.4413 104.142 22.0757H107.414C106.971 23.4235 106.164 24.532 104.994 25.401C103.841 26.2523 102.404 26.6779 100.684 26.6779C99.2829 26.6779 98.0237 26.3675 96.9064 25.7468C95.8069 25.1084 94.9379 24.2216 94.2994 23.0866C93.6787 21.9338 93.3683 20.6037 93.3683 19.0962C93.3683 17.5887 93.6698 16.2675 94.2728 15.1324C94.8935 13.9797 95.7537 13.0929 96.8532 12.4722C97.9705 11.8515 99.2475 11.5411 100.684 11.5411C102.067 11.5411 103.3 11.8426 104.382 12.4456C105.464 13.0486 106.306 13.8999 106.909 14.9994C107.512 16.0813 107.813 17.3316 107.813 18.7504ZM104.648 17.7927C104.63 16.6754 104.231 15.7798 103.451 15.1058C102.67 14.4319 101.704 14.0949 100.551 14.0949C99.5046 14.0949 98.609 14.4319 97.8641 15.1058C97.1193 15.762 96.6759 16.6576 96.534 17.7927H104.648ZM113.964 13.9087C114.407 13.1639 114.992 12.5875 115.719 12.1796C116.464 11.7539 117.342 11.5411 118.353 11.5411V14.6802H117.582C116.393 14.6802 115.489 14.9817 114.868 15.5847C114.265 16.1877 113.964 17.234 113.964 18.7238V26.4385H110.931V11.7805H113.964V13.9087ZM134.675 26.6779C133.292 26.6779 132.041 26.3675 130.924 25.7468C129.807 25.1084 128.929 24.2216 128.29 23.0866C127.652 21.9338 127.333 20.6037 127.333 19.0962C127.333 17.6065 127.661 16.2852 128.317 15.1324C128.973 13.9797 129.869 13.0929 131.004 12.4722C132.139 11.8515 133.407 11.5411 134.808 11.5411C136.209 11.5411 137.477 11.8515 138.612 12.4722C139.747 13.0929 140.643 13.9797 141.299 15.1324C141.955 16.2852 142.283 17.6065 142.283 19.0962C142.283 20.5859 141.946 21.9072 141.272 23.06C140.599 24.2127 139.676 25.1084 138.506 25.7468C137.353 26.3675 136.076 26.6779 134.675 26.6779ZM134.675 24.0443C135.455 24.0443 136.183 23.858 136.856 23.4856C137.548 23.1132 138.107 22.5545 138.532 21.8097C138.958 21.0648 139.171 20.1603 139.171 19.0962C139.171 18.0321 138.967 17.1365 138.559 16.4094C138.151 15.6645 137.61 15.1058 136.936 14.7334C136.262 14.361 135.535 14.1748 134.755 14.1748C133.975 14.1748 133.247 14.361 132.573 14.7334C131.917 15.1058 131.394 15.6645 131.004 16.4094C130.614 17.1365 130.419 18.0321 130.419 19.0962C130.419 20.6746 130.818 21.8983 131.616 22.7673C132.432 23.6186 133.451 24.0443 134.675 24.0443ZM158.689 11.7805V26.4385H155.656V24.7093C155.177 25.3123 154.548 25.7912 153.767 26.1458C153.005 26.4828 152.189 26.6513 151.32 26.6513C150.167 26.6513 149.13 26.4119 148.208 25.933C147.303 25.4542 146.585 24.7448 146.053 23.8048C145.538 22.8649 145.281 21.7298 145.281 20.3997V11.7805H148.287V19.9475C148.287 21.2599 148.615 22.2708 149.272 22.9802C149.928 23.6718 150.823 24.0177 151.959 24.0177C153.094 24.0177 153.989 23.6718 154.645 22.9802C155.319 22.2708 155.656 21.2599 155.656 19.9475V11.7805H158.689ZM165.856 13.9087C166.299 13.1639 166.885 12.5875 167.612 12.1796C168.357 11.7539 169.234 11.5411 170.245 11.5411V14.6802H169.474C168.286 14.6802 167.381 14.9817 166.76 15.5847C166.157 16.1877 165.856 17.234 165.856 18.7238V26.4385H162.823V11.7805H165.856V13.9087ZM179.199 19.043C179.199 17.571 179.5 16.2675 180.103 15.1324C180.724 13.9974 181.557 13.1195 182.604 12.4988C183.668 11.8603 184.838 11.5411 186.115 11.5411C187.268 11.5411 188.27 11.7717 189.121 12.2328C189.99 12.6762 190.682 13.2348 191.196 13.9087V11.7805H194.256V26.4385H191.196V24.2571C190.682 24.9487 189.981 25.5251 189.095 25.9862C188.208 26.4473 187.197 26.6779 186.062 26.6779C184.803 26.6779 183.65 26.3587 182.604 25.7202C181.557 25.064 180.724 24.1595 180.103 23.0068C179.5 21.8363 179.199 20.515 179.199 19.043ZM191.196 19.0962C191.196 18.0853 190.983 17.2074 190.558 16.4626C190.15 15.7177 189.609 15.1502 188.935 14.76C188.261 14.3698 187.534 14.1748 186.754 14.1748C185.973 14.1748 185.246 14.3698 184.572 14.76C183.898 15.1324 183.349 15.6911 182.923 16.436C182.515 17.1631 182.311 18.0321 182.311 19.043C182.311 20.0539 182.515 20.9406 182.923 21.7032C183.349 22.4658 183.898 23.0511 184.572 23.459C185.264 23.8492 185.991 24.0443 186.754 24.0443C187.534 24.0443 188.261 23.8492 188.935 23.459C189.609 23.0688 190.15 22.5013 190.558 21.7564C190.983 20.9938 191.196 20.1071 191.196 19.0962ZM201.405 13.9353C201.919 13.2614 202.619 12.6939 203.506 12.2328C204.393 11.7717 205.395 11.5411 206.512 11.5411C207.789 11.5411 208.951 11.8603 209.997 12.4988C211.061 13.1195 211.895 13.9974 212.498 15.1324C213.101 16.2675 213.402 17.571 213.402 19.043C213.402 20.515 213.101 21.8363 212.498 23.0068C211.895 24.1595 211.061 25.064 209.997 25.7202C208.951 26.3587 207.789 26.6779 206.512 26.6779C205.395 26.6779 204.402 26.4562 203.533 26.0128C202.664 25.5517 201.954 24.9842 201.405 24.3103V33.4083H198.372V11.7805H201.405V13.9353ZM210.316 19.043C210.316 18.0321 210.104 17.1631 209.678 16.436C209.27 15.6911 208.72 15.1324 208.029 14.76C207.355 14.3698 206.627 14.1748 205.847 14.1748C205.085 14.1748 204.357 14.3698 203.666 14.76C202.992 15.1502 202.442 15.7177 202.016 16.4626C201.608 17.2074 201.405 18.0853 201.405 19.0962C201.405 20.1071 201.608 20.9938 202.016 21.7564C202.442 22.5013 202.992 23.0688 203.666 23.459C204.357 23.8492 205.085 24.0443 205.847 24.0443C206.627 24.0443 207.355 23.8492 208.029 23.459C208.72 23.0511 209.27 22.4658 209.678 21.7032C210.104 20.9406 210.316 20.0539 210.316 19.043ZM219.567 13.9353C220.081 13.2614 220.782 12.6939 221.669 12.2328C222.555 11.7717 223.557 11.5411 224.675 11.5411C225.952 11.5411 227.113 11.8603 228.16 12.4988C229.224 13.1195 230.057 13.9974 230.66 15.1324C231.263 16.2675 231.565 17.571 231.565 19.043C231.565 20.515 231.263 21.8363 230.66 23.0068C230.057 24.1595 229.224 25.064 228.16 25.7202C227.113 26.3587 225.952 26.6779 224.675 26.6779C223.557 26.6779 222.564 26.4562 221.695 26.0128C220.826 25.5517 220.117 24.9842 219.567 24.3103V33.4083H216.534V11.7805H219.567V13.9353ZM228.479 19.043C228.479 18.0321 228.266 17.1631 227.84 16.436C227.432 15.6911 226.883 15.1324 226.191 14.76C225.517 14.3698 224.79 14.1748 224.01 14.1748C223.247 14.1748 222.52 14.3698 221.828 14.76C221.154 15.1502 220.604 15.7177 220.179 16.4626C219.771 17.2074 219.567 18.0853 219.567 19.0962C219.567 20.1071 219.771 20.9938 220.179 21.7564C220.604 22.5013 221.154 23.0688 221.828 23.459C222.52 23.8492 223.247 24.0443 224.01 24.0443C224.79 24.0443 225.517 23.8492 226.191 23.459C226.883 23.0511 227.432 22.4658 227.84 21.7032C228.266 20.9406 228.479 20.0539 228.479 19.043Z" fill="#5E6282"/>
<rect x="0.597412" y="54.9736" width="142.323" height="46.5543" rx="23.2771" fill="#080809"/>
<g clip-path="url(#clip0_0_299)">
<path d="M38.5156 77.5871L25.1564 90.451C24.5308 90.0234 24.1594 89.3123 24.166 88.5546V66.6195C24.1594 65.8618 24.5308 65.1507 25.1564 64.7231L38.5156 77.5871Z" fill="#2196F3"/>
<path d="M43.19 73.0949L38.5155 77.5882L25.1564 64.7243C25.2067 64.6853 25.2591 64.649 25.3134 64.6156C26.0194 64.1877 26.9013 64.1739 27.6204 64.5794L43.19 73.0949Z" fill="#4CAF50"/>
<path d="M48.8552 77.5895C48.8639 78.4449 48.3991 79.2349 47.6473 79.6429L43.1902 82.0828L38.5157 77.5895L43.1902 73.0962L47.6473 75.5361C48.3991 75.9441 48.8639 76.7342 48.8552 77.5895Z" fill="#F0BB1F"/>
<path d="M43.19 82.0817L27.6204 90.5972C26.8997 90.9965 26.0212 90.9826 25.3134 90.561C25.2591 90.5276 25.2067 90.4913 25.1564 90.4523L38.5155 77.5884L43.19 82.0817Z" fill="#F15A2B"/>
</g>
<path d="M64.4749 70.7753H60.7399V72.265H62.7298C62.4638 72.978 61.8147 73.4143 60.8251 73.4143C59.3779 73.4143 58.484 72.4885 58.484 71.2222C58.484 69.9134 59.4205 68.9876 60.6761 68.9876C61.5167 68.9876 62.1871 69.3707 62.4957 69.8602L63.9429 69.0302C63.3151 68.0299 62.1126 67.3276 60.6867 67.3276C58.4947 67.3276 56.7815 69.0515 56.7815 71.2116C56.7815 73.3504 58.4628 75.0743 60.8038 75.0743C62.8894 75.0743 64.4749 73.6909 64.4749 71.4138V70.7753Z" fill="white"/>
<path d="M66.6053 73.2866V71.9671H69.2655V70.3497H66.6053V69.1153H69.5315V67.4766H64.9027V74.9253H69.5847V73.2866H66.6053Z" fill="white"/>
<path d="M75.0146 67.4766H69.4812V69.1153H71.3966V74.9253H73.0992V69.1153H75.0146V67.4766Z" fill="white"/>
<path d="M77.356 67.4766V74.9253H79.0585V67.4766H77.356Z" fill="white"/>
<path d="M84.8076 67.4766H79.2743V69.1153H81.1896V74.9253H82.8922V69.1153H84.8076V67.4766Z" fill="white"/>
<path d="M90.7031 75.0743C92.8419 75.0743 94.5764 73.393 94.5764 71.201C94.5764 69.0089 92.8419 67.3276 90.7031 67.3276C88.5643 67.3276 86.8298 69.0089 86.8298 71.201C86.8298 73.393 88.5643 75.0743 90.7031 75.0743ZM90.7031 73.4143C89.49 73.4143 88.5323 72.5311 88.5323 71.201C88.5323 69.8708 89.49 68.9876 90.7031 68.9876C91.9162 68.9876 92.8738 69.8708 92.8738 71.201C92.8738 72.5311 91.9162 73.4143 90.7031 73.4143Z" fill="white"/>
<path d="M99.1529 67.4766V71.5202L96.2799 67.4766H95.0029V74.9253H96.7055V70.8817L99.5786 74.9253H100.855V67.4766H99.1529Z" fill="white"/>
<path d="M64.4749 83.4274V83.7147C64.4749 84.644 64.145 85.4279 63.4853 86.0664C62.8256 86.6978 61.9566 87.0134 60.8783 87.0134C59.7432 87.0134 58.8068 86.6446 58.0691 85.9068C57.3313 85.1619 56.9624 84.2503 56.9624 83.172C56.9624 82.0938 57.3277 81.1857 58.0584 80.448C58.7891 79.7031 59.7149 79.3307 60.8357 79.3307C61.5167 79.3307 62.141 79.4938 62.7085 79.8201C63.2831 80.1465 63.7265 80.5827 64.0386 81.129L63.5385 81.4269C63.2902 80.9587 62.9213 80.5827 62.4319 80.299C61.9495 80.0152 61.4174 79.8733 60.8357 79.8733C59.8709 79.8733 59.0764 80.1926 58.4521 80.831C57.835 81.4624 57.5264 82.2427 57.5264 83.172C57.5264 84.1014 57.8385 84.8852 58.4628 85.5237C59.087 86.1551 59.8922 86.4707 60.8783 86.4707C61.7508 86.4707 62.4567 86.2331 62.9958 85.7578C63.535 85.2825 63.8365 84.6831 63.9003 83.9595H60.7399V83.4274H64.4749Z" fill="white"/>
<path d="M72.0282 85.8961C71.2833 86.641 70.3753 87.0134 69.3041 87.0134C68.2329 87.0134 67.3249 86.641 66.58 85.8961C65.8351 85.1442 65.4627 84.2361 65.4627 83.172C65.4627 82.1079 65.8351 81.2035 66.58 80.4586C67.3249 79.7066 68.2329 79.3307 69.3041 79.3307C70.3753 79.3307 71.2833 79.7066 72.0282 80.4586C72.773 81.2035 73.1455 82.1079 73.1455 83.172C73.1455 84.2361 72.773 85.1442 72.0282 85.8961ZM66.9737 85.5131C67.6122 86.1515 68.389 86.4707 69.3041 86.4707C70.2192 86.4707 70.9925 86.1515 71.6238 85.5131C72.2623 84.8675 72.5815 84.0872 72.5815 83.172C72.5815 82.2569 72.2623 81.4801 71.6238 80.8417C70.9925 80.1961 70.2192 79.8733 69.3041 79.8733C68.389 79.8733 67.6122 80.1961 66.9737 80.8417C66.3424 81.4801 66.0267 82.2569 66.0267 83.172C66.0267 84.0872 66.3424 84.8675 66.9737 85.5131Z" fill="white"/>
<path d="M80.7155 85.8961C79.9707 86.641 79.0626 87.0134 77.9914 87.0134C76.9203 87.0134 76.0122 86.641 75.2674 85.8961C74.5225 85.1442 74.1501 84.2361 74.1501 83.172C74.1501 82.1079 74.5225 81.2035 75.2674 80.4586C76.0122 79.7066 76.9203 79.3307 77.9914 79.3307C79.0626 79.3307 79.9707 79.7066 80.7155 80.4586C81.4604 81.2035 81.8328 82.1079 81.8328 83.172C81.8328 84.2361 81.4604 85.1442 80.7155 85.8961ZM75.6611 85.5131C76.2995 86.1515 77.0763 86.4707 77.9914 86.4707C78.9066 86.4707 79.6798 86.1515 80.3112 85.5131C80.9496 84.8675 81.2689 84.0872 81.2689 83.172C81.2689 82.2569 80.9496 81.4801 80.3112 80.8417C79.6798 80.1961 78.9066 79.8733 77.9914 79.8733C77.0763 79.8733 76.2995 80.1961 75.6611 80.8417C75.0297 81.4801 74.714 82.2569 74.714 83.172C74.714 84.0872 75.0297 84.8675 75.6611 85.5131Z" fill="white"/>
<path d="M90.3499 83.4274V83.7147C90.3499 84.644 90.0201 85.4279 89.3603 86.0664C88.7006 86.6978 87.8316 87.0134 86.7533 87.0134C85.6183 87.0134 84.6818 86.6446 83.9441 85.9068C83.2063 85.1619 82.8374 84.2503 82.8374 83.172C82.8374 82.0938 83.2027 81.1857 83.9334 80.448C84.6641 79.7031 85.5899 79.3307 86.7107 79.3307C87.3917 79.3307 88.016 79.4938 88.5835 79.8201C89.1581 80.1465 89.6015 80.5827 89.9137 81.129L89.4135 81.4269C89.1652 80.9587 88.7964 80.5827 88.3069 80.299C87.8245 80.0152 87.2924 79.8733 86.7107 79.8733C85.7459 79.8733 84.9514 80.1926 84.3271 80.831C83.71 81.4624 83.4014 82.2427 83.4014 83.172C83.4014 84.1014 83.7135 84.8852 84.3378 85.5237C84.9621 86.1551 85.7672 86.4707 86.7533 86.4707C87.6258 86.4707 88.3317 86.2331 88.8708 85.7578C89.41 85.2825 89.7115 84.6831 89.7753 83.9595H86.615V83.4274H90.3499Z" fill="white"/>
<path d="M92.3273 86.3643H95.8389V86.8964H91.7634V79.4477H92.3273V86.3643Z" fill="white"/>
<path d="M97.5751 86.3643H101.299V86.8964H97.0111V79.4477H101.246V79.9798H97.5751V82.8741H100.98V83.4061H97.5751V86.3643Z" fill="white"/>
<path d="M108.054 79.4477C108.721 79.4477 109.275 79.6676 109.714 80.1074C110.154 80.5473 110.374 81.0971 110.374 81.7568C110.374 82.4165 110.154 82.9663 109.714 83.4061C109.275 83.8389 108.721 84.0552 108.054 84.0552H106.086V86.8964H105.522V79.4477H108.054ZM108.054 83.5232C108.565 83.5232 108.984 83.3565 109.31 83.0231C109.643 82.6897 109.81 82.2676 109.81 81.7568C109.81 81.2389 109.643 80.8133 109.31 80.4799C108.984 80.1465 108.565 79.9798 108.054 79.9798H106.086V83.5232H108.054Z" fill="white"/>
<path d="M112.331 86.3643H115.843V86.8964H111.767V79.4477H112.331V86.3643Z" fill="white"/>
<path d="M122.235 86.8964L121.511 85.0023H117.776L117.052 86.8964H116.457L119.351 79.4477H119.947L122.831 86.8964H122.235ZM117.989 84.4702H121.309L119.649 80.1394L117.989 84.4702Z" fill="white"/>
<path d="M128.13 79.4477L125.417 83.8318V86.8964H124.853V83.8318L122.14 79.4477H122.778L125.14 83.2891L127.492 79.4477H128.13Z" fill="white"/>
<rect x="152.231" y="54.9736" width="133.012" height="46.5543" rx="23.2771" fill="#080809"/>
<path d="M181.213 86.8925C178.046 86.8743 175.426 80.4086 175.426 77.1157C175.426 71.7369 179.461 70.5593 181.016 70.5593C181.717 70.5593 182.465 70.8345 183.125 71.0781C183.587 71.2479 184.064 71.4233 184.33 71.4233C184.488 71.4233 184.863 71.2741 185.194 71.1432C185.899 70.8625 186.776 70.5137 187.798 70.5137C187.8 70.5137 187.802 70.5137 187.804 70.5137C188.567 70.5137 190.88 70.6811 192.271 72.7696L192.596 73.2591L192.127 73.6129C191.458 74.1182 190.236 75.0401 190.236 76.8661C190.236 79.0289 191.62 79.8606 192.285 80.2606C192.578 80.4372 192.882 80.6193 192.882 81.0175C192.882 81.2775 190.807 86.8603 187.793 86.8603C187.056 86.8603 186.535 86.6387 186.075 86.4432C185.61 86.2453 185.209 86.0748 184.546 86.0748C184.21 86.0748 183.785 86.2338 183.335 86.4024C182.72 86.6319 182.024 86.8925 181.234 86.8925H181.213Z" fill="white"/>
<path d="M188.117 65.6128C188.196 68.4425 186.172 70.4056 184.151 70.2824C183.818 68.0243 186.172 65.6128 188.117 65.6128Z" fill="white"/>
<path d="M204.146 72.2654H205.542L203.643 66.6789H202.015L200.115 72.2654H201.512L201.791 71.3875H203.866L204.146 72.2654ZM202.174 70.1904L202.829 68.1393L203.483 70.1904H202.174Z" fill="white"/>
<path d="M208.369 68.275L207.539 70.8049L206.709 68.275H205.384L206.86 72.2654H208.217L209.693 68.275H208.369Z" fill="white"/>
<path d="M212.874 68.275V68.6501C212.61 68.3468 212.219 68.1633 211.685 68.1633C210.639 68.1633 209.777 69.0811 209.777 70.2702C209.777 71.4593 210.639 72.3771 211.685 72.3771C212.219 72.3771 212.61 72.1936 212.874 71.8903V72.2654H214.071V68.275H212.874ZM211.924 71.2439C211.373 71.2439 210.974 70.8688 210.974 70.2702C210.974 69.6716 211.373 69.2966 211.924 69.2966C212.475 69.2966 212.874 69.6716 212.874 70.2702C212.874 70.8688 212.475 71.2439 211.924 71.2439Z" fill="white"/>
<path d="M214.949 72.2654H216.146V66.4395H214.949V72.2654Z" fill="white"/>
<path d="M217.621 67.9239C218.012 67.9239 218.339 67.5967 218.339 67.2056C218.339 66.8145 218.012 66.4873 217.621 66.4873C217.23 66.4873 216.903 66.8145 216.903 67.2056C216.903 67.5967 217.23 67.9239 217.621 67.9239ZM217.022 72.2654H218.219V68.275H217.022V72.2654Z" fill="white"/>
<path d="M221.482 68.1633C220.947 68.1633 220.556 68.3468 220.292 68.6501V66.6789H219.095V72.2654H220.292V71.8903C220.556 72.1936 220.947 72.3771 221.482 72.3771C222.527 72.3771 223.389 71.4593 223.389 70.2702C223.389 69.0811 222.527 68.1633 221.482 68.1633ZM221.242 71.2439C220.691 71.2439 220.292 70.8688 220.292 70.2702C220.292 69.6716 220.691 69.2966 221.242 69.2966C221.793 69.2966 222.192 69.6716 222.192 70.2702C222.192 70.8688 221.793 71.2439 221.242 71.2439Z" fill="white"/>
<path d="M224.068 72.2654H225.265V66.4395H224.068V72.2654Z" fill="white"/>
<path d="M227.21 70.749H230.043C230.075 70.5974 230.091 70.4378 230.091 70.2702C230.091 69.0651 229.229 68.1633 228.064 68.1633C226.803 68.1633 225.941 69.0811 225.941 70.2702C225.941 71.4593 226.787 72.3771 228.152 72.3771C228.91 72.3771 229.501 72.0978 229.892 71.5551L228.934 71.0044C228.774 71.18 228.495 71.3077 228.168 71.3077C227.729 71.3077 227.362 71.164 227.21 70.749ZM227.186 69.8552C227.298 69.4482 227.601 69.2247 228.056 69.2247C228.415 69.2247 228.774 69.3923 228.902 69.8552H227.186Z" fill="white"/>
<path d="M234.681 72.3771C235.854 72.3771 236.796 71.4593 236.796 70.2702C236.796 69.0811 235.854 68.1633 234.681 68.1633C233.508 68.1633 232.566 69.0811 232.566 70.2702C232.566 71.4593 233.508 72.3771 234.681 72.3771ZM234.681 71.2119C234.162 71.2119 233.763 70.8368 233.763 70.2702C233.763 69.7036 234.162 69.3285 234.681 69.3285C235.2 69.3285 235.599 69.7036 235.599 70.2702C235.599 70.8368 235.2 71.2119 234.681 71.2119Z" fill="white"/>
<path d="M239.811 68.1633C239.284 68.1633 238.885 68.3548 238.67 68.6501V68.275H237.473V72.2654H238.67V70.0866C238.67 69.52 238.973 69.2646 239.412 69.2646C239.795 69.2646 240.106 69.4961 240.106 69.9909V72.2654H241.304V69.8153C241.304 68.7379 240.617 68.1633 239.811 68.1633Z" fill="white"/>
<path d="M246.459 69.4242V68.275H245.637V67.1577L244.44 67.5169V68.275H243.802V69.4242H244.44V70.8368C244.44 71.9541 244.895 72.425 246.459 72.2654V71.18C245.932 71.2119 245.637 71.18 245.637 70.8368V69.4242H246.459Z" fill="white"/>
<path d="M249.475 68.1633C248.949 68.1633 248.55 68.3548 248.334 68.6501V66.6789H247.137V72.2654H248.334V70.0866C248.334 69.52 248.637 69.2646 249.076 69.2646C249.459 69.2646 249.771 69.4961 249.771 69.9909V72.2654H250.968V69.8153C250.968 68.7379 250.281 68.1633 249.475 68.1633Z" fill="white"/>
<path d="M252.859 70.749H255.692C255.724 70.5974 255.74 70.4378 255.74 70.2702C255.74 69.0651 254.878 68.1633 253.713 68.1633C252.452 68.1633 251.59 69.0811 251.59 70.2702C251.59 71.4593 252.436 72.3771 253.801 72.3771C254.559 72.3771 255.15 72.0978 255.541 71.5551L254.583 71.0044C254.423 71.18 254.144 71.3077 253.817 71.3077C253.378 71.3077 253.011 71.164 252.859 70.749ZM252.835 69.8552C252.947 69.4482 253.25 69.2247 253.705 69.2247C254.064 69.2247 254.423 69.3923 254.551 69.8552H252.835Z" fill="white"/>
<path d="M206.832 86.8967H209.16L205.994 77.5859H203.281L200.115 86.8967H202.443L202.908 85.4336H206.367L206.832 86.8967ZM203.547 83.4384L204.638 80.02L205.728 83.4384H203.547Z" fill="white"/>
<path d="M213.865 80.0599C212.973 80.0599 212.322 80.3658 211.883 80.8713V80.2461H209.887V89.557H211.883V86.2716C212.322 86.777 212.973 87.0829 213.865 87.0829C215.607 87.0829 217.044 85.5533 217.044 83.5714C217.044 81.5895 215.607 80.0599 213.865 80.0599ZM213.465 85.1942C212.548 85.1942 211.883 84.569 211.883 83.5714C211.883 82.5738 212.548 81.9487 213.465 81.9487C214.383 81.9487 215.048 82.5738 215.048 83.5714C215.048 84.569 214.383 85.1942 213.465 85.1942Z" fill="white"/>
<path d="M222.152 80.0599C221.261 80.0599 220.609 80.3658 220.17 80.8713V80.2461H218.175V89.557H220.17V86.2716C220.609 86.777 221.261 87.0829 222.152 87.0829C223.894 87.0829 225.331 85.5533 225.331 83.5714C225.331 81.5895 223.894 80.0599 222.152 80.0599ZM221.753 85.1942C220.835 85.1942 220.17 84.569 220.17 83.5714C220.17 82.5738 220.835 81.9487 221.753 81.9487C222.671 81.9487 223.336 82.5738 223.336 83.5714C223.336 84.569 222.671 85.1942 221.753 85.1942Z" fill="white"/>
<path d="M226.462 86.8967H228.457V77.1868H226.462V86.8967Z" fill="white"/>
<path d="M231.7 84.3695H236.422C236.475 84.1168 236.501 83.8507 236.501 83.5714C236.501 81.5629 235.065 80.0599 233.123 80.0599C231.021 80.0599 229.585 81.5895 229.585 83.5714C229.585 85.5533 230.995 87.0829 233.269 87.0829C234.533 87.0829 235.517 86.6174 236.169 85.7129L234.573 84.7951C234.307 85.0878 233.841 85.3006 233.296 85.3006C232.564 85.3006 231.952 85.0612 231.7 84.3695ZM231.66 82.8798C231.846 82.2014 232.351 81.829 233.11 81.829C233.708 81.829 234.307 82.1083 234.519 82.8798H231.66Z" fill="white"/>
<path d="M244.284 87.0829C246.305 87.0829 247.742 86.0188 247.742 84.2232C247.742 82.2546 246.159 81.7625 244.749 81.3368C243.299 80.8979 243.073 80.6052 243.073 80.1796C243.073 79.8072 243.406 79.4746 244.071 79.4746C244.922 79.4746 245.361 79.887 245.68 80.552L247.476 79.5012C246.798 78.1312 245.6 77.3997 244.071 77.3997C242.461 77.3997 240.945 78.4371 240.945 80.2328C240.945 82.0152 242.302 82.6802 243.685 83.066C245.082 83.4517 245.614 83.6778 245.614 84.2498C245.614 84.6089 245.361 85.0079 244.35 85.0079C243.299 85.0079 242.727 84.4892 242.395 83.7177L240.559 84.7818C241.078 86.1519 242.328 87.0829 244.284 87.0829Z" fill="white"/>
<path d="M252.441 82.1615V80.2461H251.071V78.3839L249.076 78.9825V80.2461H248.012V82.1615H249.076V84.5158C249.076 86.378 249.834 87.1627 252.441 86.8967V85.0878C251.563 85.141 251.071 85.0878 251.071 84.5158V82.1615H252.441Z" fill="white"/>
<path d="M256.633 87.0829C258.589 87.0829 260.158 85.5533 260.158 83.5714C260.158 81.5895 258.589 80.0599 256.633 80.0599C254.678 80.0599 253.109 81.5895 253.109 83.5714C253.109 85.5533 254.678 87.0829 256.633 87.0829ZM256.633 85.141C255.769 85.141 255.104 84.5158 255.104 83.5714C255.104 82.627 255.769 82.0019 256.633 82.0019C257.498 82.0019 258.163 82.627 258.163 83.5714C258.163 84.5158 257.498 85.141 256.633 85.141Z" fill="white"/>
<path d="M263.282 81.4299V80.2461H261.287V86.8967H263.282V83.8906C263.282 82.5738 264.452 82.2413 265.277 82.3743V80.1131C264.439 80.1131 263.548 80.5387 263.282 81.4299Z" fill="white"/>
<path d="M267.797 84.3695H272.519C272.572 84.1168 272.599 83.8507 272.599 83.5714C272.599 81.5629 271.163 80.0599 269.221 80.0599C267.119 80.0599 265.682 81.5895 265.682 83.5714C265.682 85.5533 267.092 87.0829 269.367 87.0829C270.63 87.0829 271.615 86.6174 272.267 85.7129L270.67 84.7951C270.404 85.0878 269.939 85.3006 269.393 85.3006C268.662 85.3006 268.05 85.0612 267.797 84.3695ZM267.757 82.8798C267.944 82.2014 268.449 81.829 269.207 81.829C269.806 81.829 270.404 82.1083 270.617 82.8798H267.757Z" fill="white"/>
<defs>
<clipPath id="clip0_0_299">
<rect width="26.6024" height="26.6024" fill="white" transform="translate(23.2094 64.2847)"/>
</clipPath>
</defs>
</svg>
