<svg width="44" height="44" viewBox="0 0 44 44" fill="none" xmlns="http://www.w3.org/2000/svg">
<ellipse cx="21.9402" cy="22.1859" rx="21.5709" ry="21.5709" fill="#F5F5F5"/>
<path d="M28.3438 16.4843L20.773 24.0831C20.6862 24.0328 20.595 23.9907 20.5004 23.9573L15.5021 22.2655C15.351 22.2277 15.2168 22.1404 15.121 22.0175C15.0251 21.8946 14.973 21.7433 14.973 21.5875C14.973 21.4316 15.0251 21.2803 15.121 21.1574C15.2168 21.0346 15.351 20.9473 15.5021 20.9094L27.9034 16.4983C27.9845 16.4708 28.0695 16.4566 28.1551 16.4564C28.2191 16.4553 28.2829 16.4648 28.3438 16.4843Z" fill="#84829A"/>
<path d="M28.8261 17.4221L24.415 29.8374C24.3664 29.982 24.2717 30.1068 24.1455 30.1927C24.0192 30.2785 23.8684 30.3207 23.7159 30.3127C23.5617 30.3198 23.4095 30.2756 23.2831 30.1871C23.1566 30.0986 23.063 29.9707 23.0169 29.8234L21.3531 24.8251C21.3197 24.7305 21.2776 24.6393 21.2273 24.5525L28.84 16.9817C28.883 17.1262 28.8781 17.2806 28.8261 17.4221Z" fill="#84829A"/>
</svg>
